<svg width="16" height="16" viewBox="0 0 16 16" fill="none" xmlns="http://www.w3.org/2000/svg">
<path d="M14.6673 5.33333V5C14.6673 3.8131 13.9534 2.7085 12.657 1.88973C11.4876 1.1512 9.96322 0.7234 8.33398 0.671967V0H7.66732V0.671967C6.03805 0.7234 4.51368 1.1512 3.34432 1.88977C2.04792 2.7085 1.33398 3.8131 1.33398 5V5.33333H7.66732V8.66667H1.33398V11H2.33398V16H3.00065V13.1381L5.13875 11H7.66732V16H8.33398V11H10.8626L13.0007 13.1381V16H13.6673V11H14.6673V8.66667H8.33398V5.33333H14.6673ZM3.00065 12.1953V11H4.19588L3.00065 12.1953ZM13.0007 12.1953L11.8054 11H13.0007V12.1953ZM14.0007 10.3333H2.00065V9.33333H14.0007V10.3333ZM8.00065 1.33333C8.42865 1.33333 8.86528 1.69557 9.19862 2.32713C9.53125 2.95737 9.73048 3.77837 9.77052 4.66667H6.23078C6.27082 3.77837 6.47005 2.95737 6.80268 2.32713C7.13602 1.69557 7.57265 1.33333 8.00065 1.33333ZM13.9758 4.66667H10.4383C10.3828 3.31437 9.99168 2.15307 9.40792 1.43547C10.4972 1.59637 11.4945 1.94407 12.301 2.4534C13.268 3.06413 13.8517 3.84007 13.9758 4.66667ZM3.70028 2.4534C4.50672 1.94407 5.50408 1.59637 6.59335 1.43547C6.00958 2.15307 5.61852 3.31437 5.56302 4.66667H2.02555C2.14962 3.84007 2.73328 3.06413 3.70028 2.4534Z" fill="#F43838"/>
</svg>
